<svg width="62" height="37" viewBox="0 0 62 37" fill="none" xmlns="http://www.w3.org/2000/svg">
<path d="M4.61657 36.3636H8.88631e-05L13.3524 1.00136e-05H17.8978L31.2501 36.3636H26.6336L15.7671 5.75285H15.483L4.61657 36.3636ZM6.32111 22.1591H24.9291V26.0654H6.32111V22.1591ZM36.9142 36.3636V1.00136e-05H49.2011C52.0538 1.00136e-05 54.3857 0.514925 56.1968 1.54475C58.0197 2.56275 59.3692 3.94177 60.2451 5.68183C61.1211 7.42189 61.559 9.36317 61.559 11.5057C61.559 13.6482 61.1211 15.5954 60.2451 17.3473C59.381 19.0992 58.0434 20.496 56.2323 21.5377C54.4213 22.5675 52.1012 23.0824 49.2721 23.0824H40.4653V19.1761H49.1301C51.0832 19.1761 52.6516 18.8388 53.8353 18.1641C55.019 17.4894 55.8772 16.5779 56.4099 15.4297C56.9544 14.2697 57.2267 12.9617 57.2267 11.5057C57.2267 10.0497 56.9544 8.74764 56.4099 7.59944C55.8772 6.45124 55.0131 5.55162 53.8176 4.90058C52.622 4.2377 51.0358 3.90626 49.059 3.90626H41.3176V36.3636H36.9142Z" fill="black"/>
</svg>
