<svg width="150" height="75" viewBox="0 0 150 75" fill="none" xmlns="http://www.w3.org/2000/svg">
<rect x="0.5" y="0.5" width="149" height="74" rx="37" stroke="black"/>
<path d="M46.1989 31H43.5568C43.4006 30.2401 43.1271 29.5724 42.7365 28.9972C42.353 28.4219 41.8842 27.9389 41.3303 27.5483C40.7834 27.1506 40.1761 26.8523 39.5085 26.6534C38.8409 26.4545 38.1449 26.3551 37.4205 26.3551C36.0994 26.3551 34.9027 26.6889 33.8303 27.3565C32.7649 28.0241 31.9162 29.0078 31.2841 30.3075C30.6591 31.6072 30.3466 33.2017 30.3466 35.0909C30.3466 36.9801 30.6591 38.5746 31.2841 39.8743C31.9162 41.174 32.7649 42.1577 33.8303 42.8253C34.9027 43.4929 36.0994 43.8267 37.4205 43.8267C38.1449 43.8267 38.8409 43.7273 39.5085 43.5284C40.1761 43.3295 40.7834 43.0348 41.3303 42.6442C41.8842 42.2464 42.353 41.7599 42.7365 41.1847C43.1271 40.6023 43.4006 39.9347 43.5568 39.1818H46.1989C46 40.2969 45.6378 41.2947 45.1122 42.1754C44.5866 43.0561 43.9332 43.8054 43.152 44.4233C42.3707 45.0341 41.4936 45.4993 40.5206 45.8189C39.5547 46.1385 38.5213 46.2983 37.4205 46.2983C35.5597 46.2983 33.9048 45.8438 32.456 44.9347C31.0071 44.0256 29.8672 42.733 29.0362 41.0568C28.2053 39.3807 27.7898 37.392 27.7898 35.0909C27.7898 32.7898 28.2053 30.8011 29.0362 29.125C29.8672 27.4489 31.0071 26.1562 32.456 25.2472C33.9048 24.3381 35.5597 23.8835 37.4205 23.8835C38.5213 23.8835 39.5547 24.0433 40.5206 24.3629C41.4936 24.6825 42.3707 25.1513 43.152 25.7692C43.9332 26.38 44.5866 27.1257 45.1122 28.0064C45.6378 28.88 46 29.8778 46.1989 31ZM50.4682 46V24.1818H53.1103V43.6562H63.2523V46H50.4682ZM84.9027 35.0909C84.9027 37.392 84.4872 39.3807 83.6562 41.0568C82.8253 42.733 81.6854 44.0256 80.2365 44.9347C78.7876 45.8438 77.1328 46.2983 75.272 46.2983C73.4112 46.2983 71.7564 45.8438 70.3075 44.9347C68.8587 44.0256 67.7188 42.733 66.8878 41.0568C66.0568 39.3807 65.6413 37.392 65.6413 35.0909C65.6413 32.7898 66.0568 30.8011 66.8878 29.125C67.7188 27.4489 68.8587 26.1562 70.3075 25.2472C71.7564 24.3381 73.4112 23.8835 75.272 23.8835C77.1328 23.8835 78.7876 24.3381 80.2365 25.2472C81.6854 26.1562 82.8253 27.4489 83.6562 29.125C84.4872 30.8011 84.9027 32.7898 84.9027 35.0909ZM82.3459 35.0909C82.3459 33.2017 82.0298 31.6072 81.3977 30.3075C80.7727 29.0078 79.924 28.0241 78.8516 27.3565C77.7862 26.6889 76.593 26.3551 75.272 26.3551C73.951 26.3551 72.7543 26.6889 71.6818 27.3565C70.6165 28.0241 69.7678 29.0078 69.1357 30.3075C68.5107 31.6072 68.1982 33.2017 68.1982 35.0909C68.1982 36.9801 68.5107 38.5746 69.1357 39.8743C69.7678 41.174 70.6165 42.1577 71.6818 42.8253C72.7543 43.4929 73.951 43.8267 75.272 43.8267C76.593 43.8267 77.7862 43.4929 78.8516 42.8253C79.924 42.1577 80.7727 41.174 81.3977 39.8743C82.0298 38.5746 82.3459 36.9801 82.3459 35.0909ZM101.277 29.6364C101.149 28.5568 100.631 27.7188 99.7216 27.1222C98.8125 26.5256 97.6974 26.2273 96.3764 26.2273C95.4105 26.2273 94.5653 26.3835 93.8409 26.696C93.1236 27.0085 92.5625 27.4382 92.1577 27.9851C91.7599 28.532 91.5611 29.1534 91.5611 29.8494C91.5611 30.4318 91.6996 30.9325 91.9766 31.3516C92.2607 31.7635 92.6229 32.108 93.0632 32.3849C93.5036 32.6548 93.9652 32.8786 94.4482 33.0561C94.9311 33.2266 95.375 33.3651 95.7798 33.4716L97.9957 34.0682C98.5639 34.2173 99.196 34.4233 99.892 34.6861C100.595 34.9489 101.266 35.3075 101.906 35.7621C102.552 36.2095 103.085 36.7848 103.504 37.4879C103.923 38.1911 104.132 39.054 104.132 40.0767C104.132 41.2557 103.823 42.321 103.205 43.2727C102.594 44.2244 101.7 44.9808 100.521 45.5419C99.3487 46.103 97.9247 46.3835 96.2486 46.3835C94.6861 46.3835 93.3331 46.1314 92.1896 45.6271C91.0533 45.1229 90.1584 44.4197 89.505 43.5178C88.8587 42.6158 88.4929 41.5682 88.4077 40.375H91.1349C91.206 41.1989 91.483 41.8807 91.9659 42.4205C92.456 42.9531 93.0739 43.3509 93.8196 43.6136C94.5724 43.8693 95.3821 43.9972 96.2486 43.9972C97.2571 43.9972 98.1626 43.8338 98.9652 43.5071C99.7678 43.1733 100.403 42.7116 100.872 42.1222C101.341 41.5256 101.575 40.8295 101.575 40.0341C101.575 39.3097 101.373 38.7202 100.968 38.2656C100.563 37.8111 100.031 37.4418 99.37 37.1577C98.7095 36.8736 97.9957 36.625 97.2287 36.4119L94.544 35.6449C92.8395 35.1548 91.4901 34.4553 90.4957 33.5462C89.5014 32.6371 89.0043 31.4474 89.0043 29.9773C89.0043 28.7557 89.3345 27.6903 89.995 26.7812C90.6626 25.8651 91.5575 25.1548 92.6797 24.6506C93.8089 24.1392 95.0696 23.8835 96.4616 23.8835C97.8679 23.8835 99.1179 24.1357 100.212 24.6399C101.305 25.1371 102.172 25.8189 102.811 26.6854C103.457 27.5518 103.798 28.5355 103.834 29.6364H101.277ZM108.476 46V24.1818H121.644V26.5256H111.118V33.8977H120.962V36.2415H111.118V43.6562H121.814V46H108.476Z" fill="black"/>
</svg>
