<svg width="150" height="75" viewBox="0 0 150 75" fill="none" xmlns="http://www.w3.org/2000/svg">
<rect x="0.5" y="0.5" width="149" height="74" rx="37" stroke="black"/>
<path d="M28.642 24.1818H31.7955L39.2102 42.2926H39.4659L46.8807 24.1818H50.0341V46H47.5625V29.4233H47.3494L40.5312 46H38.1449L31.3267 29.4233H31.1136V46H28.642V24.1818ZM55.3315 46V24.1818H68.4991V26.5256H57.9735V33.8977H67.8173V36.2415H57.9735V43.6562H68.6696V46H55.3315ZM90.5623 24.1818V46H88.0055L76.1163 28.8693H75.9032V46H73.2612V24.1818H75.818L87.7498 41.3551H87.9629V24.1818H90.5623ZM110.167 24.1818H112.809V38.6278C112.809 40.1193 112.458 41.451 111.755 42.6229C111.059 43.7876 110.075 44.7074 108.804 45.3821C107.532 46.0497 106.041 46.3835 104.329 46.3835C102.618 46.3835 101.126 46.0497 99.8548 45.3821C98.5835 44.7074 97.5962 43.7876 96.8931 42.6229C96.1971 41.451 95.8491 40.1193 95.8491 38.6278V24.1818H98.4911V38.4148C98.4911 39.4801 98.7255 40.4283 99.1942 41.2592C99.663 42.0831 100.331 42.733 101.197 43.2088C102.071 43.6776 103.115 43.9119 104.329 43.9119C105.544 43.9119 106.588 43.6776 107.461 43.2088C108.335 42.733 109.002 42.0831 109.464 41.2592C109.933 40.4283 110.167 39.4801 110.167 38.4148V24.1818Z" fill="black"/>
</svg>
